<svg xmlns="http://www.w3.org/2000/svg" viewBox="0 0 512.009 512.009" width="512" height="512"><path d="M360.535 294.4l-128 170.667a9.899 9.899 0 0 1-6.4 4.053L16.002 511.147l-3.2.64a7.267 7.267 0 0 1-2.133.213 10.006 10.006 0 0 1-7.467-3.2 10.456 10.456 0 0 1-2.987-9.6l.64-3.2 42.027-210.133a9.879 9.879 0 0 1 4.053-6.4l170.667-128a10.453 10.453 0 0 1 13.867 1.067l128 128a10.453 10.453 0 0 1 1.066 13.866z" data-original="#FFC107" class="active-path" data-old_color="#26c19a" fill="#26c19a"/><path d="M167.469 359.467L16.002 511.147l-3.2.64a7.267 7.267 0 0 1-2.133.213 10.006 10.006 0 0 1-7.467-3.2 10.456 10.456 0 0 1-2.987-9.6l.64-3.2 151.68-151.467c4.165-4.082 10.851-4.015 14.933.15 4.025 4.107 4.025 10.678.001 14.784z" data-original="#FAFAFA" fill="#fafafa"/><path d="M501.335 0H330.669a10.663 10.663 0 0 0-8.341 4.011l-85.333 106.667a10.667 10.667 0 0 0 .789 14.208l149.333 149.333a10.667 10.667 0 0 0 14.208.789l106.667-85.333a10.668 10.668 0 0 0 4.011-8.341V10.667C512.002 4.776 507.226 0 501.335 0z" data-original="#455A64" data-old_color="#26c19a" fill="#26c19a"/><circle cx="192.002" cy="320" r="42.667" data-original="#FAFAFA" fill="#fafafa"/></svg>