<svg xmlns="http://www.w3.org/2000/svg" viewBox="0 0 502 502" width="512" height="512"><path d="M461.63 251.914l-15.038-34.207a76.579 76.579 0 0 0-2.938-5.968c-6.272-11.469-16.565-20.103-28.981-24.313a52.383 52.383 0 0 0-37.784 1.578l-5.795 2.52-7.405-16.845-.003-.007-5.456-12.41c-4.662-10.604-13.188-18.74-24.007-22.907-10.766-4.146-22.478-3.845-32.987.846l-19.228 8.33c-3.557-5.06-7.877-8.921-12.914-11.528-10.521-5.445-23.178-4.987-37.621 1.363l-13.759 6.048-17.81-40.514c-7.25-16.493-20.706-27.81-36.916-31.05-15.239-3.046-30.755 1.265-41.51 11.53-16.139 15.402-20.776 38.528-11.822 58.895l67.466 154.435c-5.649-1.143-11.602-1.666-17.643-1.519-15.691.387-29.8 5.377-39.247 13.79-.62.402-1.203.878-1.737 1.428-9.494 9.777-14.174 21.604-13.537 34.201.797 15.743 9.79 31.268 26.006 44.898.082.069.165.137.25.203l138.681 109.147a9.99 9.99 0 0 0 10.209 1.296l198.672-87.337a9.998 9.998 0 0 0 5.956-8.531l1.081-17.312c2.9-46.426-5.462-93.475-24.183-136.06zm4.223 134.814l-.702 11.231-187.601 82.472-133.835-105.334c-11.612-9.796-18.28-20.623-18.78-30.498-.324-6.402 1.87-12.364 6.526-17.748.336-.267.658-.558.964-.873 11.971-12.329 41.824-13.181 57.414-1.748l34.447 33.084a9.968 9.968 0 0 0 6.926 2.788 9.974 9.974 0 0 0 7.214-3.073c3.826-3.983 3.698-10.314-.285-14.14l-33.516-32.191-76.648-175.452c-6.717-15.28-.627-28.821 7.313-36.398 5.953-5.682 15.066-8.129 23.782-6.386 9.87 1.973 17.87 8.893 22.527 19.486l58.06 132.072a10 10 0 0 0 9.16 5.978c1.344 0 2.71-.272 4.019-.848 5.056-2.223 7.353-8.123 5.13-13.179l-32.201-73.249 13.76-6.049c8.636-3.795 15.493-4.438 20.379-1.909 3.458 1.79 6.373 5.338 8.663 10.546l34.24 77.888a10 10 0 0 0 9.16 5.978c1.344 0 2.71-.272 4.019-.848 5.056-2.223 7.353-8.123 5.13-13.179l-30.194-68.685 18.32-7.937c.039-.017.077-.033.115-.051 5.625-2.521 11.904-2.685 17.681-.46 5.809 2.237 10.385 6.602 12.886 12.292l40.687 92.565a10 10 0 0 0 9.16 5.978c1.344 0 2.71-.272 4.019-.848 5.056-2.222 7.353-8.123 5.13-13.179l-19.779-44.992 5.722-2.488c15.467-6.727 33.2-.713 41.244 13.994a56.999 56.999 0 0 1 2.173 4.416l15.039 34.208c17.441 39.676 25.233 83.511 22.532 126.766z" data-original="#000000" class="active-path" data-old_color="#2896CE" fill="#FFF"/><path d="M426.561 384.075l-9.865 4.327c-5.058 2.218-7.359 8.116-5.141 13.174a10 10 0 0 0 9.163 5.986 9.95 9.95 0 0 0 4.011-.845l9.865-4.327c5.058-2.218 7.359-8.116 5.141-13.174-2.217-5.058-8.115-7.36-13.174-5.141zM386.77 401.751l-105.353 46.208c-5.058 2.218-7.359 8.116-5.141 13.174a10 10 0 0 0 9.163 5.986 9.965 9.965 0 0 0 4.011-.844l105.353-46.209c5.058-2.218 7.359-8.116 5.141-13.174-2.217-5.057-8.114-7.359-13.174-5.141zM127.017 45.197c.976 4.727 5.139 7.98 9.783 7.98.67 0 1.351-.068 2.032-.208 5.409-1.117 8.888-6.407 7.771-11.816l-6.85-33.174c-1.116-5.408-6.408-8.885-11.815-7.771-5.409 1.116-8.888 6.406-7.771 11.815l6.85 33.174zM41.035 46.913c2.909-4.696 1.459-10.859-3.236-13.767l-6.907-4.277c-4.696-2.909-10.859-1.46-13.767 3.236-2.909 4.696-1.459 10.859 3.236 13.767l6.907 4.277a9.995 9.995 0 0 0 13.767-3.236zM60.454 72.245l21.332 14.031a9.952 9.952 0 0 0 5.486 1.646 9.994 9.994 0 0 0 8.365-4.506c3.035-4.614 1.754-10.815-2.86-13.85L71.444 55.535c-4.615-3.035-10.815-1.754-13.85 2.86s-1.754 10.815 2.86 13.85zM86.622 135.491c-1.117-5.408-6.405-8.886-11.816-7.771l-33.174 6.85c-5.409 1.116-8.888 6.406-7.771 11.815.976 4.727 5.139 7.98 9.783 7.98.67 0 1.351-.068 2.033-.208l33.174-6.85c5.409-1.117 8.888-6.407 7.771-11.816zM111.775 186.982c-4.615-3.036-10.816-1.754-13.85 2.86l-18.614 28.301c-3.035 4.614-1.754 10.815 2.86 13.85a9.952 9.952 0 0 0 5.486 1.646 9.99 9.99 0 0 0 8.364-4.506l18.614-28.301c3.035-4.614 1.754-10.815-2.86-13.85zM221.355 105.18c.976 4.726 5.139 7.979 9.783 7.979.67 0 1.35-.068 2.033-.208l22.116-4.567c5.409-1.117 8.888-6.407 7.771-11.816-1.117-5.409-6.406-8.888-11.816-7.771l-22.116 4.567c-5.409 1.117-8.888 6.407-7.771 11.816zM293.34 100.315c.67 0 1.351-.068 2.033-.208l6.912-1.427c5.409-1.117 8.888-6.407 7.771-11.816-1.117-5.408-6.404-8.887-11.816-7.771l-6.912 1.427c-5.409 1.117-8.888 6.407-7.771 11.816.976 4.726 5.139 7.979 9.783 7.979zM190.907 61.982a9.952 9.952 0 0 0 5.486 1.646 9.99 9.99 0 0 0 8.364-4.506l18.614-28.301c3.035-4.614 1.754-10.815-2.86-13.85-4.615-3.036-10.816-1.754-13.85 2.86l-18.614 28.301c-3.035 4.614-1.754 10.815 2.86 13.85z" data-original="#000000" class="active-path" data-old_color="#2896CE" fill="#FFF"/></svg>